<svg width="21" height="21" viewBox="0 0 21 21" fill="none" xmlns="http://www.w3.org/2000/svg">
<path d="M16.667 16.1667C17.1974 16.1667 17.7061 16.3774 18.0812 16.7525C18.4563 17.1275 18.667 17.6362 18.667 18.1667C18.667 18.6971 18.4563 19.2058 18.0812 19.5809C17.7061 19.956 17.1974 20.1667 16.667 20.1667C15.557 20.1667 14.667 19.2667 14.667 18.1667C14.667 17.0567 15.557 16.1667 16.667 16.1667ZM0.666992 0.166667H3.93699L4.87699 2.16667H19.667C19.9322 2.16667 20.1866 2.27202 20.3741 2.45956C20.5616 2.6471 20.667 2.90145 20.667 3.16667C20.667 3.33667 20.617 3.50667 20.547 3.66667L16.967 10.1367C16.627 10.7467 15.967 11.1667 15.217 11.1667H7.76699L6.86699 12.7967L6.83699 12.9167C6.83699 12.983 6.86333 13.0466 6.91022 13.0934C6.9571 13.1403 7.02069 13.1667 7.08699 13.1667H18.667V15.1667H6.66699C5.55699 15.1667 4.66699 14.2667 4.66699 13.1667C4.66699 12.8167 4.75699 12.4867 4.90699 12.2067L6.26699 9.75667L2.66699 2.16667H0.666992V0.166667ZM6.66699 16.1667C7.19743 16.1667 7.70613 16.3774 8.08121 16.7525C8.45628 17.1275 8.66699 17.6362 8.66699 18.1667C8.66699 18.6971 8.45628 19.2058 8.08121 19.5809C7.70613 19.956 7.19743 20.1667 6.66699 20.1667C5.55699 20.1667 4.66699 19.2667 4.66699 18.1667C4.66699 17.0567 5.55699 16.1667 6.66699 16.1667ZM15.667 9.16667L18.447 4.16667H5.80699L8.16699 9.16667H15.667Z" fill="white"/>
</svg>
